<?xml version="1.0" encoding="UTF-8" standalone="no"?>
<!DOCTYPE svg PUBLIC "-//W3C//DTD SVG 1.1//EN"
 "http://www.w3.org/Graphics/SVG/1.1/DTD/svg11.dtd">
<!-- Generated by graphviz version 2.43.0 (0)
 -->
<!-- Title: %3 Pages: 1 -->
<svg width="1008pt" height="651pt"
 viewBox="0.00 0.00 1008.00 651.27" xmlns="http://www.w3.org/2000/svg" xmlns:xlink="http://www.w3.org/1999/xlink">
<g id="graph0" class="graph" transform="scale(4.66 4.66) rotate(0) translate(4 3031.37)">
<title>%3</title>
<polygon fill="white" stroke="transparent" points="-4,4 -4,-3031.37 4694.01,-3031.37 4694.01,4 -4,4"/>
<!-- hello&#45;world -->
<g id="node1" class="node">
<title>hello&#45;world</title>
<polygon fill="#e94762" stroke="transparent" points="3040,-614 2890,-614 2890,-578 3040,-578 3040,-614"/>
<text text-anchor="middle" x="2965" y="-589.8" font-family="Helvetica,sans-Serif" font-size="24.00">hello&#45;world</text>
</g>
<!-- github.com/bytedance/sonic -->
<g id="node2" class="node">
<title>github.com/bytedance/sonic</title>
<text text-anchor="middle" x="1288.5" y="-1632.88" font-family="Helvetica,sans-Serif" font-size="24.00">github.com/bytedance/sonic</text>
</g>
<!-- github.com/chenzhuoyu/base64x -->
<g id="node3" class="node">
<title>github.com/chenzhuoyu/base64x</title>
<text text-anchor="middle" x="1684.28" y="-1614.86" font-family="Helvetica,sans-Serif" font-size="24.00">github.com/chenzhuoyu/base64x</text>
</g>
<!-- github.com/bytedance/sonic&#45;&gt;github.com/chenzhuoyu/base64x -->
<g id="edge1" class="edge">
<title>github.com/bytedance/sonic&#45;&gt;github.com/chenzhuoyu/base64x</title>
<path fill="none" stroke="black" d="M1468.17,-1637.63C1468.34,-1637.63 1468.5,-1637.62 1468.67,-1637.61"/>
<polygon fill="black" stroke="black" points="1466.32,-1641.22 1476.16,-1637.29 1466.02,-1634.22 1466.32,-1641.22"/>
</g>
<!-- github.com/chenzhuoyu/iasm -->
<g id="node4" class="node">
<title>github.com/chenzhuoyu/iasm</title>
<text text-anchor="middle" x="872.63" y="-1668.53" font-family="Helvetica,sans-Serif" font-size="24.00">github.com/chenzhuoyu/iasm</text>
</g>
<!-- github.com/bytedance/sonic&#45;&gt;github.com/chenzhuoyu/iasm -->
<g id="edge2" class="edge">
<title>github.com/bytedance/sonic&#45;&gt;github.com/chenzhuoyu/iasm</title>
<path fill="none" stroke="black" d="M1108.82,-1654.49C1095.6,-1655.62 1082.23,-1656.77 1068.92,-1657.91"/>
<polygon fill="black" stroke="black" points="1068.43,-1654.44 1058.76,-1658.78 1069.02,-1661.41 1068.43,-1654.44"/>
</g>
<!-- github.com/davecgh/go&#45;spew -->
<g id="node5" class="node">
<title>github.com/davecgh/go&#45;spew</title>
<text text-anchor="middle" x="1394.8" y="-1360.71" font-family="Helvetica,sans-Serif" font-size="24.00">github.com/davecgh/go&#45;spew</text>
</g>
<!-- github.com/bytedance/sonic&#45;&gt;github.com/davecgh/go&#45;spew -->
<g id="edge3" class="edge">
<title>github.com/bytedance/sonic&#45;&gt;github.com/davecgh/go&#45;spew</title>
<path fill="none" stroke="black" d="M1295.64,-1620.8C1313.87,-1574.12 1362.23,-1450.31 1383.96,-1394.67"/>
<polygon fill="black" stroke="black" points="1387.31,-1395.69 1387.69,-1385.11 1380.79,-1393.15 1387.31,-1395.69"/>
</g>
<!-- github.com/klauspost/cpuid/v2 -->
<g id="node6" class="node">
<title>github.com/klauspost/cpuid/v2</title>
<text text-anchor="middle" x="1533.18" y="-1889.99" font-family="Helvetica,sans-Serif" font-size="24.00">github.com/klauspost/cpuid/v2</text>
</g>
<!-- github.com/bytedance/sonic&#45;&gt;github.com/klauspost/cpuid/v2 -->
<g id="edge4" class="edge">
<title>github.com/bytedance/sonic&#45;&gt;github.com/klauspost/cpuid/v2</title>
<path fill="none" stroke="black" d="M1305.71,-1657.16C1348.44,-1702.06 1459.51,-1818.77 1508.89,-1870.67"/>
<polygon fill="black" stroke="black" points="1506.57,-1873.3 1516,-1878.13 1511.64,-1868.47 1506.57,-1873.3"/>
</g>
<!-- github.com/stretchr/testify -->
<g id="node7" class="node">
<title>github.com/stretchr/testify</title>
<text text-anchor="middle" x="1624.63" y="-1314.01" font-family="Helvetica,sans-Serif" font-size="24.00">github.com/stretchr/testify</text>
</g>
<!-- github.com/bytedance/sonic&#45;&gt;github.com/stretchr/testify -->
<g id="edge5" class="edge">
<title>github.com/bytedance/sonic&#45;&gt;github.com/stretchr/testify</title>
<path fill="none" stroke="black" d="M1307.54,-1621.02C1364.26,-1567.22 1532.24,-1407.85 1597.9,-1345.56"/>
<polygon fill="black" stroke="black" points="1600.54,-1347.88 1605.39,-1338.46 1595.73,-1342.81 1600.54,-1347.88"/>
</g>
<!-- github.com/twitchyliquid64/golang&#45;asm -->
<g id="node8" class="node">
<title>github.com/twitchyliquid64/golang&#45;asm</title>
<text text-anchor="middle" x="1543.15" y="-2053.16" font-family="Helvetica,sans-Serif" font-size="24.00">github.com/twitchyliquid64/golang&#45;asm</text>
</g>
<!-- github.com/bytedance/sonic&#45;&gt;github.com/twitchyliquid64/golang&#45;asm -->
<g id="edge6" class="edge">
<title>github.com/bytedance/sonic&#45;&gt;github.com/twitchyliquid64/golang&#45;asm</title>
<path fill="none" stroke="black" d="M1299.45,-1657.14C1339.51,-1723.27 1478.39,-1952.48 1526.55,-2031.96"/>
<polygon fill="black" stroke="black" points="1523.78,-2034.15 1531.96,-2040.89 1529.77,-2030.53 1523.78,-2034.15"/>
</g>
<!-- golang.org/x/arch -->
<g id="node9" class="node">
<title>golang.org/x/arch</title>
<text text-anchor="middle" x="1290.07" y="-1146.08" font-family="Helvetica,sans-Serif" font-size="24.00">golang.org/x/arch</text>
</g>
<!-- github.com/bytedance/sonic&#45;&gt;golang.org/x/arch -->
<g id="edge7" class="edge">
<title>github.com/bytedance/sonic&#45;&gt;golang.org/x/arch</title>
<path fill="none" stroke="black" d="M1288.56,-1620.89C1288.8,-1547.15 1289.69,-1270.25 1289.98,-1180.53"/>
<polygon fill="black" stroke="black" points="1293.48,-1180.32 1290.01,-1170.31 1286.48,-1180.3 1293.48,-1180.32"/>
</g>
<!-- github.com/chenzhuoyu/base64x&#45;&gt;github.com/bytedance/sonic -->
<g id="edge8" class="edge">
<title>github.com/chenzhuoyu/base64x&#45;&gt;github.com/bytedance/sonic</title>
<path fill="none" stroke="black" d="M1476.23,-1623.79C1476.15,-1623.79 1476.06,-1623.79 1475.98,-1623.8"/>
<polygon fill="black" stroke="black" points="1477.95,-1620.2 1468.12,-1624.17 1478.28,-1627.19 1477.95,-1620.2"/>
</g>
<!-- github.com/chenzhuoyu/base64x&#45;&gt;github.com/davecgh/go&#45;spew -->
<g id="edge9" class="edge">
<title>github.com/chenzhuoyu/base64x&#45;&gt;github.com/davecgh/go&#45;spew</title>
<path fill="none" stroke="black" d="M1663.46,-1602.79C1612.45,-1558 1481.16,-1442.73 1423.12,-1391.77"/>
<polygon fill="black" stroke="black" points="1425.25,-1388.99 1415.43,-1385.02 1420.64,-1394.25 1425.25,-1388.99"/>
</g>
<!-- github.com/chenzhuoyu/base64x&#45;&gt;github.com/klauspost/cpuid/v2 -->
<g id="edge10" class="edge">
<title>github.com/chenzhuoyu/base64x&#45;&gt;github.com/klauspost/cpuid/v2</title>
<path fill="none" stroke="black" d="M1674.37,-1639.12C1648.48,-1686.24 1578.77,-1813.18 1548.05,-1869.1"/>
<polygon fill="black" stroke="black" points="1544.88,-1867.62 1543.13,-1878.07 1551.01,-1870.99 1544.88,-1867.62"/>
</g>
<!-- github.com/chenzhuoyu/base64x&#45;&gt;github.com/stretchr/testify -->
<g id="edge11" class="edge">
<title>github.com/chenzhuoyu/base64x&#45;&gt;github.com/stretchr/testify</title>
<path fill="none" stroke="black" d="M1680.64,-1602.7C1670.57,-1551.91 1642.3,-1409.32 1630.22,-1348.39"/>
<polygon fill="black" stroke="black" points="1633.6,-1347.46 1628.23,-1338.33 1626.74,-1348.82 1633.6,-1347.46"/>
</g>
<!-- github.com/chenzhuoyu/iasm&#45;&gt;github.com/davecgh/go&#45;spew -->
<g id="edge12" class="edge">
<title>github.com/chenzhuoyu/iasm&#45;&gt;github.com/davecgh/go&#45;spew</title>
<path fill="none" stroke="black" d="M903.35,-1656.63C993.13,-1603.7 1255.07,-1449.28 1355.23,-1390.23"/>
<polygon fill="black" stroke="black" points="1357.29,-1393.08 1364.12,-1384.99 1353.73,-1387.05 1357.29,-1393.08"/>
</g>
<!-- github.com/chenzhuoyu/iasm&#45;&gt;github.com/klauspost/cpuid/v2 -->
<g id="edge13" class="edge">
<title>github.com/chenzhuoyu/iasm&#45;&gt;github.com/klauspost/cpuid/v2</title>
<path fill="none" stroke="black" d="M926.41,-1692.76C1047.24,-1733.27 1339.76,-1831.34 1469.45,-1874.82"/>
<polygon fill="black" stroke="black" points="1468.65,-1878.24 1479.25,-1878.1 1470.88,-1871.61 1468.65,-1878.24"/>
</g>
<!-- github.com/chenzhuoyu/iasm&#45;&gt;github.com/stretchr/testify -->
<g id="edge15" class="edge">
<title>github.com/chenzhuoyu/iasm&#45;&gt;github.com/stretchr/testify</title>
<path fill="none" stroke="black" d="M910.96,-1656.67C1037.06,-1597.22 1438.89,-1407.78 1577.27,-1342.54"/>
<polygon fill="black" stroke="black" points="1578.83,-1345.67 1586.38,-1338.24 1575.85,-1339.34 1578.83,-1345.67"/>
</g>
<!-- github.com/knz/go&#45;libedit -->
<g id="node10" class="node">
<title>github.com/knz/go&#45;libedit</title>
<text text-anchor="middle" x="249.2" y="-1966.07" font-family="Helvetica,sans-Serif" font-size="24.00">github.com/knz/go&#45;libedit</text>
</g>
<!-- github.com/chenzhuoyu/iasm&#45;&gt;github.com/knz/go&#45;libedit -->
<g id="edge14" class="edge">
<title>github.com/chenzhuoyu/iasm&#45;&gt;github.com/knz/go&#45;libedit</title>
<path fill="none" stroke="black" d="M834.57,-1692.9C726.08,-1744.68 415.43,-1892.93 296.39,-1949.74"/>
<polygon fill="black" stroke="black" points="294.67,-1946.68 287.15,-1954.15 297.69,-1953 294.67,-1946.68"/>
</g>
<!-- nullprogram.com/x/optparse -->
<g id="node11" class="node">
<title>nullprogram.com/x/optparse</title>
<text text-anchor="middle" x="179.5" y="-1646.55" font-family="Helvetica,sans-Serif" font-size="24.00">nullprogram.com/x/optparse</text>
</g>
<!-- github.com/chenzhuoyu/iasm&#45;&gt;nullprogram.com/x/optparse -->
<g id="edge16" class="edge">
<title>github.com/chenzhuoyu/iasm&#45;&gt;nullprogram.com/x/optparse</title>
<path fill="none" stroke="black" d="M686.43,-1668.83C588.25,-1665.71 468.05,-1661.9 369.33,-1658.77"/>
<polygon fill="black" stroke="black" points="369.35,-1655.27 359.24,-1658.45 369.13,-1662.26 369.35,-1655.27"/>
</g>
<!-- golang.org/x/sys -->
<g id="node29" class="node">
<title>golang.org/x/sys</title>
<text text-anchor="middle" x="2069.55" y="-2208.4" font-family="Helvetica,sans-Serif" font-size="24.00">golang.org/x/sys</text>
</g>
<!-- github.com/klauspost/cpuid/v2&#45;&gt;golang.org/x/sys -->
<g id="edge65" class="edge">
<title>github.com/klauspost/cpuid/v2&#45;&gt;golang.org/x/sys</title>
<path fill="none" stroke="black" d="M1563.56,-1914.22C1655.09,-1968.56 1928.23,-2130.71 2030.4,-2191.36"/>
<polygon fill="black" stroke="black" points="2028.79,-2194.48 2039.17,-2196.57 2032.36,-2188.46 2028.79,-2194.48"/>
</g>
<!-- github.com/stretchr/testify&#45;&gt;github.com/davecgh/go&#45;spew -->
<g id="edge71" class="edge">
<title>github.com/stretchr/testify&#45;&gt;github.com/davecgh/go&#45;spew</title>
<path fill="none" stroke="black" d="M1535.77,-1338.26C1521.95,-1341.07 1507.59,-1343.99 1493.57,-1346.84"/>
<polygon fill="black" stroke="black" points="1492.53,-1343.48 1483.42,-1348.9 1493.92,-1350.34 1492.53,-1343.48"/>
</g>
<!-- github.com/pmezard/go&#45;difflib -->
<g id="node26" class="node">
<title>github.com/pmezard/go&#45;difflib</title>
<text text-anchor="middle" x="1857.84" y="-1123.08" font-family="Helvetica,sans-Serif" font-size="24.00">github.com/pmezard/go&#45;difflib</text>
</g>
<!-- github.com/stretchr/testify&#45;&gt;github.com/pmezard/go&#45;difflib -->
<g id="edge72" class="edge">
<title>github.com/stretchr/testify&#45;&gt;github.com/pmezard/go&#45;difflib</title>
<path fill="none" stroke="black" d="M1646.99,-1301.9C1689.13,-1267.4 1780.31,-1192.75 1827.77,-1153.9"/>
<polygon fill="black" stroke="black" points="1830.03,-1156.57 1835.55,-1147.53 1825.59,-1151.15 1830.03,-1156.57"/>
</g>
<!-- gopkg.in/yaml.v3 -->
<g id="node32" class="node">
<title>gopkg.in/yaml.v3</title>
<text text-anchor="middle" x="1960.26" y="-728.79" font-family="Helvetica,sans-Serif" font-size="24.00">gopkg.in/yaml.v3</text>
</g>
<!-- github.com/stretchr/testify&#45;&gt;gopkg.in/yaml.v3 -->
<g id="edge74" class="edge">
<title>github.com/stretchr/testify&#45;&gt;gopkg.in/yaml.v3</title>
<path fill="none" stroke="black" d="M1635.04,-1302.05C1683.49,-1217.58 1886.9,-862.91 1944.81,-761.93"/>
<polygon fill="black" stroke="black" points="1947.86,-763.64 1949.8,-753.22 1941.79,-760.16 1947.86,-763.64"/>
</g>
<!-- github.com/stretchr/objx -->
<g id="node38" class="node">
<title>github.com/stretchr/objx</title>
<text text-anchor="middle" x="994.09" y="-1107.55" font-family="Helvetica,sans-Serif" font-size="24.00">github.com/stretchr/objx</text>
</g>
<!-- github.com/stretchr/testify&#45;&gt;github.com/stretchr/objx -->
<g id="edge73" class="edge">
<title>github.com/stretchr/testify&#45;&gt;github.com/stretchr/objx</title>
<path fill="none" stroke="black" d="M1581.43,-1302.2C1476.63,-1263.93 1207.67,-1175.53 1073.16,-1134.77"/>
<polygon fill="black" stroke="black" points="1073.9,-1131.34 1063.31,-1131.81 1071.88,-1138.04 1073.9,-1131.34"/>
</g>
<!-- rsc.io/pdf -->
<g id="node39" class="node">
<title>rsc.io/pdf</title>
<text text-anchor="middle" x="672.89" y="-717.14" font-family="Helvetica,sans-Serif" font-size="24.00">rsc.io/pdf</text>
</g>
<!-- golang.org/x/arch&#45;&gt;rsc.io/pdf -->
<g id="edge75" class="edge">
<title>golang.org/x/arch&#45;&gt;rsc.io/pdf</title>
<path fill="none" stroke="black" d="M1263.94,-1134.12C1165.77,-1065.89 818.84,-824.78 707.53,-747.42"/>
<polygon fill="black" stroke="black" points="709.23,-744.34 699.02,-741.5 705.23,-750.09 709.23,-744.34"/>
</g>
<!-- github.com/gabriel&#45;vasile/mimetype -->
<g id="node12" class="node">
<title>github.com/gabriel&#45;vasile/mimetype</title>
<text text-anchor="middle" x="2403.71" y="-2009.13" font-family="Helvetica,sans-Serif" font-size="24.00">github.com/gabriel&#45;vasile/mimetype</text>
</g>
<!-- golang.org/x/net -->
<g id="node13" class="node">
<title>golang.org/x/net</title>
<text text-anchor="middle" x="2309.66" y="-2392.42" font-family="Helvetica,sans-Serif" font-size="24.00">golang.org/x/net</text>
</g>
<!-- github.com/gabriel&#45;vasile/mimetype&#45;&gt;golang.org/x/net -->
<g id="edge17" class="edge">
<title>github.com/gabriel&#45;vasile/mimetype&#45;&gt;golang.org/x/net</title>
<path fill="none" stroke="black" d="M2399.24,-2033.55C2384.14,-2095.1 2334.97,-2295.49 2316.63,-2370.2"/>
<polygon fill="black" stroke="black" points="2313.15,-2369.73 2314.16,-2380.28 2319.94,-2371.4 2313.15,-2369.73"/>
</g>
<!-- golang.org/x/crypto -->
<g id="node28" class="node">
<title>golang.org/x/crypto</title>
<text text-anchor="middle" x="2552.79" y="-2400.36" font-family="Helvetica,sans-Serif" font-size="24.00">golang.org/x/crypto</text>
</g>
<!-- golang.org/x/net&#45;&gt;golang.org/x/crypto -->
<g id="edge80" class="edge">
<title>golang.org/x/net&#45;&gt;golang.org/x/crypto</title>
<path fill="none" stroke="black" d="M2417.85,-2408.87C2418.01,-2408.87 2418.17,-2408.88 2418.33,-2408.89"/>
<polygon fill="black" stroke="black" points="2415.35,-2412.28 2425.47,-2409.15 2415.6,-2405.28 2415.35,-2412.28"/>
</g>
<!-- golang.org/x/net&#45;&gt;golang.org/x/sys -->
<g id="edge81" class="edge">
<title>golang.org/x/net&#45;&gt;golang.org/x/sys</title>
<path fill="none" stroke="black" d="M2285.76,-2380.3C2242.25,-2346.96 2150.12,-2276.35 2101.36,-2238.98"/>
<polygon fill="black" stroke="black" points="2103.42,-2236.15 2093.35,-2232.84 2099.16,-2241.71 2103.42,-2236.15"/>
</g>
<!-- golang.org/x/text -->
<g id="node30" class="node">
<title>golang.org/x/text</title>
<text text-anchor="middle" x="2799.88" y="-2394.11" font-family="Helvetica,sans-Serif" font-size="24.00">golang.org/x/text</text>
</g>
<!-- golang.org/x/net&#45;&gt;golang.org/x/text -->
<g id="edge83" class="edge">
<title>golang.org/x/net&#45;&gt;golang.org/x/text</title>
<path fill="none" stroke="black" d="M2417.85,-2398.99C2494.64,-2399.25 2597.83,-2399.61 2677.61,-2399.88"/>
<polygon fill="black" stroke="black" points="2677.7,-2403.38 2687.71,-2399.92 2677.73,-2396.38 2677.7,-2403.38"/>
</g>
<!-- golang.org/x/term -->
<g id="node40" class="node">
<title>golang.org/x/term</title>
<text text-anchor="middle" x="2611.1" y="-2905.23" font-family="Helvetica,sans-Serif" font-size="24.00">golang.org/x/term</text>
</g>
<!-- golang.org/x/net&#45;&gt;golang.org/x/term -->
<g id="edge82" class="edge">
<title>golang.org/x/net&#45;&gt;golang.org/x/term</title>
<path fill="none" stroke="black" d="M2320.39,-2416.87C2365.71,-2493.98 2541.64,-2793.26 2595.41,-2884.73"/>
<polygon fill="black" stroke="black" points="2592.42,-2886.55 2600.5,-2893.4 2598.45,-2883.01 2592.42,-2886.55"/>
</g>
<!-- github.com/gin&#45;contrib/sse -->
<g id="node14" class="node">
<title>github.com/gin&#45;contrib/sse</title>
<text text-anchor="middle" x="1897.39" y="-1406.18" font-family="Helvetica,sans-Serif" font-size="24.00">github.com/gin&#45;contrib/sse</text>
</g>
<!-- github.com/gin&#45;contrib/sse&#45;&gt;github.com/stretchr/testify -->
<g id="edge18" class="edge">
<title>github.com/gin&#45;contrib/sse&#45;&gt;github.com/stretchr/testify</title>
<path fill="none" stroke="black" d="M1843.83,-1394.28C1798.98,-1379.12 1734.9,-1357.47 1687.6,-1341.49"/>
<polygon fill="black" stroke="black" points="1688.67,-1338.15 1678.07,-1338.27 1686.43,-1344.78 1688.67,-1338.15"/>
</g>
<!-- github.com/gin&#45;gonic/gin -->
<g id="node15" class="node">
<title>github.com/gin&#45;gonic/gin</title>
<text text-anchor="middle" x="2161.4" y="-1593.19" font-family="Helvetica,sans-Serif" font-size="24.00">github.com/gin&#45;gonic/gin</text>
</g>
<!-- github.com/gin&#45;gonic/gin&#45;&gt;github.com/bytedance/sonic -->
<g id="edge19" class="edge">
<title>github.com/gin&#45;gonic/gin&#45;&gt;github.com/bytedance/sonic</title>
<path fill="none" stroke="black" d="M2002.82,-1606.6C1855.28,-1613.31 1635.23,-1623.31 1478.39,-1630.45"/>
<polygon fill="black" stroke="black" points="1477.99,-1626.96 1468.16,-1630.91 1478.31,-1633.95 1477.99,-1626.96"/>
</g>
<!-- github.com/gin&#45;gonic/gin&#45;&gt;github.com/chenzhuoyu/base64x -->
<g id="edge20" class="edge">
<title>github.com/gin&#45;gonic/gin&#45;&gt;github.com/chenzhuoyu/base64x</title>
<path fill="none" stroke="black" d="M2002.86,-1606.59C1970.65,-1608.06 1936.24,-1609.62 1902.38,-1611.16"/>
<polygon fill="black" stroke="black" points="1902.21,-1607.66 1892.38,-1611.61 1902.52,-1614.65 1902.21,-1607.66"/>
</g>
<!-- github.com/gin&#45;gonic/gin&#45;&gt;github.com/davecgh/go&#45;spew -->
<g id="edge21" class="edge">
<title>github.com/gin&#45;gonic/gin&#45;&gt;github.com/davecgh/go&#45;spew</title>
<path fill="none" stroke="black" d="M2101.88,-1581.34C1962.09,-1538.95 1613.38,-1433.19 1464.24,-1387.96"/>
<polygon fill="black" stroke="black" points="1464.86,-1384.5 1454.28,-1384.94 1462.83,-1391.19 1464.86,-1384.5"/>
</g>
<!-- github.com/gin&#45;gonic/gin&#45;&gt;github.com/klauspost/cpuid/v2 -->
<g id="edge29" class="edge">
<title>github.com/gin&#45;gonic/gin&#45;&gt;github.com/klauspost/cpuid/v2</title>
<path fill="none" stroke="black" d="M2123.05,-1617.51C2013.72,-1669.16 1700.69,-1817.05 1580.74,-1873.72"/>
<polygon fill="black" stroke="black" points="1578.98,-1870.68 1571.43,-1878.12 1581.97,-1877.01 1578.98,-1870.68"/>
</g>
<!-- github.com/gin&#45;gonic/gin&#45;&gt;github.com/stretchr/testify -->
<g id="edge36" class="edge">
<title>github.com/gin&#45;gonic/gin&#45;&gt;github.com/stretchr/testify</title>
<path fill="none" stroke="black" d="M2126.6,-1581.29C2032.33,-1532.26 1772.22,-1396.97 1668.33,-1342.94"/>
<polygon fill="black" stroke="black" points="1669.85,-1339.78 1659.36,-1338.27 1666.62,-1345.99 1669.85,-1339.78"/>
</g>
<!-- github.com/gin&#45;gonic/gin&#45;&gt;github.com/twitchyliquid64/golang&#45;asm -->
<g id="edge37" class="edge">
<title>github.com/gin&#45;gonic/gin&#45;&gt;github.com/twitchyliquid64/golang&#45;asm</title>
<path fill="none" stroke="black" d="M2137.16,-1617.42C2040.88,-1689.05 1685.35,-1953.56 1575.62,-2035.2"/>
<polygon fill="black" stroke="black" points="1573.48,-2032.42 1567.55,-2041.2 1577.66,-2038.04 1573.48,-2032.42"/>
</g>
<!-- github.com/gin&#45;gonic/gin&#45;&gt;golang.org/x/arch -->
<g id="edge39" class="edge">
<title>github.com/gin&#45;gonic/gin&#45;&gt;golang.org/x/arch</title>
<path fill="none" stroke="black" d="M2126.16,-1581.31C1988.48,-1510.66 1486.92,-1253.29 1334.38,-1175.02"/>
<polygon fill="black" stroke="black" points="1335.76,-1171.79 1325.27,-1170.34 1332.56,-1178.02 1335.76,-1171.79"/>
</g>
<!-- github.com/gin&#45;gonic/gin&#45;&gt;github.com/gabriel&#45;vasile/mimetype -->
<g id="edge22" class="edge">
<title>github.com/gin&#45;gonic/gin&#45;&gt;github.com/gabriel&#45;vasile/mimetype</title>
<path fill="none" stroke="black" d="M2171.97,-1617.53C2210.31,-1683.34 2342.22,-1909.77 2387.95,-1988.27"/>
<polygon fill="black" stroke="black" points="2385.03,-1990.21 2393.09,-1997.09 2391.08,-1986.69 2385.03,-1990.21"/>
</g>
<!-- github.com/gin&#45;gonic/gin&#45;&gt;golang.org/x/net -->
<g id="edge41" class="edge">
<title>github.com/gin&#45;gonic/gin&#45;&gt;golang.org/x/net</title>
<path fill="none" stroke="black" d="M2164.78,-1617.58C2184.1,-1721.78 2280.72,-2242.59 2304.41,-2370.31"/>
<polygon fill="black" stroke="black" points="2301.03,-2371.26 2306.29,-2380.45 2307.91,-2369.98 2301.03,-2371.26"/>
</g>
<!-- github.com/gin&#45;gonic/gin&#45;&gt;github.com/gin&#45;contrib/sse -->
<g id="edge23" class="edge">
<title>github.com/gin&#45;gonic/gin&#45;&gt;github.com/gin&#45;contrib/sse</title>
<path fill="none" stroke="black" d="M2135.61,-1581.12C2087.67,-1547.16 1984.89,-1474.36 1931.37,-1436.45"/>
<polygon fill="black" stroke="black" points="1933.09,-1433.37 1922.9,-1430.45 1929.04,-1439.09 1933.09,-1433.37"/>
</g>
<!-- github.com/goccy/go&#45;json -->
<g id="node16" class="node">
<title>github.com/goccy/go&#45;json</title>
<text text-anchor="middle" x="2750.92" y="-1177.51" font-family="Helvetica,sans-Serif" font-size="24.00">github.com/goccy/go&#45;json</text>
</g>
<!-- github.com/gin&#45;gonic/gin&#45;&gt;github.com/goccy/go&#45;json -->
<g id="edge24" class="edge">
<title>github.com/gin&#45;gonic/gin&#45;&gt;github.com/goccy/go&#45;json</title>
<path fill="none" stroke="black" d="M2187.11,-1581.26C2281.62,-1514.62 2609.83,-1283.2 2716.87,-1207.72"/>
<polygon fill="black" stroke="black" points="2718.92,-1210.56 2725.07,-1201.94 2714.88,-1204.84 2718.92,-1210.56"/>
</g>
<!-- github.com/go&#45;playground/locales -->
<g id="node17" class="node">
<title>github.com/go&#45;playground/locales</title>
<text text-anchor="middle" x="2852.27" y="-2034.42" font-family="Helvetica,sans-Serif" font-size="24.00">github.com/go&#45;playground/locales</text>
</g>
<!-- github.com/gin&#45;gonic/gin&#45;&gt;github.com/go&#45;playground/locales -->
<g id="edge25" class="edge">
<title>github.com/gin&#45;gonic/gin&#45;&gt;github.com/go&#45;playground/locales</title>
<path fill="none" stroke="black" d="M2189.77,-1617.51C2299.01,-1687.28 2692.45,-1938.55 2815.33,-2017.03"/>
<polygon fill="black" stroke="black" points="2813.73,-2020.16 2824.04,-2022.59 2817.5,-2014.26 2813.73,-2020.16"/>
</g>
<!-- github.com/go&#45;playground/universal&#45;translator -->
<g id="node18" class="node">
<title>github.com/go&#45;playground/universal&#45;translator</title>
<text text-anchor="middle" x="2746.98" y="-1825.9" font-family="Helvetica,sans-Serif" font-size="24.00">github.com/go&#45;playground/universal&#45;translator</text>
</g>
<!-- github.com/gin&#45;gonic/gin&#45;&gt;github.com/go&#45;playground/universal&#45;translator -->
<g id="edge26" class="edge">
<title>github.com/gin&#45;gonic/gin&#45;&gt;github.com/go&#45;playground/universal&#45;translator</title>
<path fill="none" stroke="black" d="M2206.86,-1617.46C2313.11,-1659.68 2577.36,-1764.69 2692.22,-1810.33"/>
<polygon fill="black" stroke="black" points="2690.97,-1813.6 2701.55,-1814.04 2693.55,-1807.1 2690.97,-1813.6"/>
</g>
<!-- github.com/go&#45;playground/validator/v10 -->
<g id="node19" class="node">
<title>github.com/go&#45;playground/validator/v10</title>
<text text-anchor="middle" x="2437.11" y="-2216.27" font-family="Helvetica,sans-Serif" font-size="24.00">github.com/go&#45;playground/validator/v10</text>
</g>
<!-- github.com/gin&#45;gonic/gin&#45;&gt;github.com/go&#45;playground/validator/v10 -->
<g id="edge27" class="edge">
<title>github.com/gin&#45;gonic/gin&#45;&gt;github.com/go&#45;playground/validator/v10</title>
<path fill="none" stroke="black" d="M2169.5,-1617.7C2208.62,-1706.11 2378,-2088.89 2424.98,-2195.07"/>
<polygon fill="black" stroke="black" points="2421.89,-2196.73 2429.14,-2204.46 2428.29,-2193.9 2421.89,-2196.73"/>
</g>
<!-- github.com/json&#45;iterator/go -->
<g id="node20" class="node">
<title>github.com/json&#45;iterator/go</title>
<text text-anchor="middle" x="1782.72" y="-903.45" font-family="Helvetica,sans-Serif" font-size="24.00">github.com/json&#45;iterator/go</text>
</g>
<!-- github.com/gin&#45;gonic/gin&#45;&gt;github.com/json&#45;iterator/go -->
<g id="edge28" class="edge">
<title>github.com/gin&#45;gonic/gin&#45;&gt;github.com/json&#45;iterator/go</title>
<path fill="none" stroke="black" d="M2151.47,-1581.3C2099.59,-1486.82 1859.86,-1050.15 1797.55,-936.67"/>
<polygon fill="black" stroke="black" points="1800.61,-934.96 1792.72,-927.88 1794.47,-938.33 1800.61,-934.96"/>
</g>
<!-- github.com/leodido/go&#45;urn -->
<g id="node21" class="node">
<title>github.com/leodido/go&#45;urn</title>
<text text-anchor="middle" x="1966.95" y="-1829.78" font-family="Helvetica,sans-Serif" font-size="24.00">github.com/leodido/go&#45;urn</text>
</g>
<!-- github.com/gin&#45;gonic/gin&#45;&gt;github.com/leodido/go&#45;urn -->
<g id="edge30" class="edge">
<title>github.com/gin&#45;gonic/gin&#45;&gt;github.com/leodido/go&#45;urn</title>
<path fill="none" stroke="black" d="M2146.47,-1617.56C2112.25,-1659.19 2028.09,-1761.59 1988.37,-1809.92"/>
<polygon fill="black" stroke="black" points="1985.58,-1807.8 1981.94,-1817.75 1990.99,-1812.24 1985.58,-1807.8"/>
</g>
<!-- github.com/mattn/go&#45;isatty -->
<g id="node22" class="node">
<title>github.com/mattn/go&#45;isatty</title>
<text text-anchor="middle" x="1823.91" y="-2265.7" font-family="Helvetica,sans-Serif" font-size="24.00">github.com/mattn/go&#45;isatty</text>
</g>
<!-- github.com/gin&#45;gonic/gin&#45;&gt;github.com/mattn/go&#45;isatty -->
<g id="edge31" class="edge">
<title>github.com/gin&#45;gonic/gin&#45;&gt;github.com/mattn/go&#45;isatty</title>
<path fill="none" stroke="black" d="M2152.2,-1617.73C2105.39,-1711.01 1893.7,-2132.83 1837.6,-2244.63"/>
<polygon fill="black" stroke="black" points="1834.31,-2243.38 1832.95,-2253.89 1840.56,-2246.52 1834.31,-2243.38"/>
</g>
<!-- github.com/modern&#45;go/concurrent -->
<g id="node23" class="node">
<title>github.com/modern&#45;go/concurrent</title>
<text text-anchor="middle" x="2180.26" y="-871.64" font-family="Helvetica,sans-Serif" font-size="24.00">github.com/modern&#45;go/concurrent</text>
</g>
<!-- github.com/gin&#45;gonic/gin&#45;&gt;github.com/modern&#45;go/concurrent -->
<g id="edge32" class="edge">
<title>github.com/gin&#45;gonic/gin&#45;&gt;github.com/modern&#45;go/concurrent</title>
<path fill="none" stroke="black" d="M2161.88,-1581.19C2164.42,-1483.91 2176.41,-1025.18 2179.52,-906.12"/>
<polygon fill="black" stroke="black" points="2183.02,-906.08 2179.79,-895.99 2176.03,-905.89 2183.02,-906.08"/>
</g>
<!-- github.com/modern&#45;go/reflect2 -->
<g id="node24" class="node">
<title>github.com/modern&#45;go/reflect2</title>
<text text-anchor="middle" x="2325.84" y="-977.15" font-family="Helvetica,sans-Serif" font-size="24.00">github.com/modern&#45;go/reflect2</text>
</g>
<!-- github.com/gin&#45;gonic/gin&#45;&gt;github.com/modern&#45;go/reflect2 -->
<g id="edge33" class="edge">
<title>github.com/gin&#45;gonic/gin&#45;&gt;github.com/modern&#45;go/reflect2</title>
<path fill="none" stroke="black" d="M2166.23,-1581.29C2189.49,-1494.15 2289.95,-1117.78 2318.34,-1011.43"/>
<polygon fill="black" stroke="black" points="2321.81,-1012.02 2321,-1001.45 2315.04,-1010.21 2321.81,-1012.02"/>
</g>
<!-- github.com/pelletier/go&#45;toml/v2 -->
<g id="node25" class="node">
<title>github.com/pelletier/go&#45;toml/v2</title>
<text text-anchor="middle" x="2092.24" y="-1203.32" font-family="Helvetica,sans-Serif" font-size="24.00">github.com/pelletier/go&#45;toml/v2</text>
</g>
<!-- github.com/gin&#45;gonic/gin&#45;&gt;github.com/pelletier/go&#45;toml/v2 -->
<g id="edge34" class="edge">
<title>github.com/gin&#45;gonic/gin&#45;&gt;github.com/pelletier/go&#45;toml/v2</title>
<path fill="none" stroke="black" d="M2158.2,-1581.37C2147.19,-1519.28 2110.76,-1313.91 2097.3,-1238.02"/>
<polygon fill="black" stroke="black" points="2100.68,-1237.03 2095.49,-1227.8 2093.79,-1238.26 2100.68,-1237.03"/>
</g>
<!-- github.com/gin&#45;gonic/gin&#45;&gt;github.com/pmezard/go&#45;difflib -->
<g id="edge35" class="edge">
<title>github.com/gin&#45;gonic/gin&#45;&gt;github.com/pmezard/go&#45;difflib</title>
<path fill="none" stroke="black" d="M2149.69,-1581.25C2103.06,-1509.04 1930.52,-1241.83 1875.1,-1156"/>
<polygon fill="black" stroke="black" points="1877.88,-1153.86 1869.52,-1147.36 1872,-1157.66 1877.88,-1153.86"/>
</g>
<!-- github.com/ugorji/go/codec -->
<g id="node27" class="node">
<title>github.com/ugorji/go/codec</title>
<text text-anchor="middle" x="2897.66" y="-1447.93" font-family="Helvetica,sans-Serif" font-size="24.00">github.com/ugorji/go/codec</text>
</g>
<!-- github.com/gin&#45;gonic/gin&#45;&gt;github.com/ugorji/go/codec -->
<g id="edge38" class="edge">
<title>github.com/gin&#45;gonic/gin&#45;&gt;github.com/ugorji/go/codec</title>
<path fill="none" stroke="black" d="M2252.79,-1581.36C2391,-1554.09 2652.3,-1502.54 2796.22,-1474.14"/>
<polygon fill="black" stroke="black" points="2797.24,-1477.51 2806.37,-1472.14 2795.89,-1470.64 2797.24,-1477.51"/>
</g>
<!-- github.com/gin&#45;gonic/gin&#45;&gt;golang.org/x/crypto -->
<g id="edge40" class="edge">
<title>github.com/gin&#45;gonic/gin&#45;&gt;golang.org/x/crypto</title>
<path fill="none" stroke="black" d="M2170.31,-1617.77C2221.49,-1723.31 2477.92,-2252.15 2539.48,-2379.12"/>
<polygon fill="black" stroke="black" points="2536.38,-2380.74 2543.89,-2388.21 2542.68,-2377.68 2536.38,-2380.74"/>
</g>
<!-- github.com/gin&#45;gonic/gin&#45;&gt;golang.org/x/sys -->
<g id="edge42" class="edge">
<title>github.com/gin&#45;gonic/gin&#45;&gt;golang.org/x/sys</title>
<path fill="none" stroke="black" d="M2158.7,-1617.47C2145.71,-1704.49 2089.59,-2080.35 2073.73,-2186.56"/>
<polygon fill="black" stroke="black" points="2070.26,-2186.11 2072.24,-2196.52 2077.18,-2187.15 2070.26,-2186.11"/>
</g>
<!-- github.com/gin&#45;gonic/gin&#45;&gt;golang.org/x/text -->
<g id="edge43" class="edge">
<title>github.com/gin&#45;gonic/gin&#45;&gt;golang.org/x/text</title>
<path fill="none" stroke="black" d="M2175.94,-1617.62C2259.67,-1722.67 2680.26,-2250.25 2779.07,-2374.21"/>
<polygon fill="black" stroke="black" points="2776.39,-2376.46 2785.36,-2382.1 2781.87,-2372.1 2776.39,-2376.46"/>
</g>
<!-- google.golang.org/protobuf -->
<g id="node31" class="node">
<title>google.golang.org/protobuf</title>
<text text-anchor="middle" x="3292.69" y="-974.74" font-family="Helvetica,sans-Serif" font-size="24.00">google.golang.org/protobuf</text>
</g>
<!-- github.com/gin&#45;gonic/gin&#45;&gt;google.golang.org/protobuf -->
<g id="edge44" class="edge">
<title>github.com/gin&#45;gonic/gin&#45;&gt;google.golang.org/protobuf</title>
<path fill="none" stroke="black" d="M2194.34,-1581.38C2356.52,-1492.72 3069.57,-1102.91 3250.72,-1003.88"/>
<polygon fill="black" stroke="black" points="3252.58,-1006.85 3259.68,-998.98 3249.23,-1000.71 3252.58,-1006.85"/>
</g>
<!-- github.com/gin&#45;gonic/gin&#45;&gt;gopkg.in/yaml.v3 -->
<g id="edge45" class="edge">
<title>github.com/gin&#45;gonic/gin&#45;&gt;gopkg.in/yaml.v3</title>
<path fill="none" stroke="black" d="M2157.2,-1581.34C2131.74,-1471.93 1998.16,-897.88 1966.84,-763.26"/>
<polygon fill="black" stroke="black" points="1970.2,-762.26 1964.52,-753.31 1963.38,-763.84 1970.2,-762.26"/>
</g>
<!-- github.com/go&#45;playground/locales&#45;&gt;golang.org/x/text -->
<g id="edge49" class="edge">
<title>github.com/go&#45;playground/locales&#45;&gt;golang.org/x/text</title>
<path fill="none" stroke="black" d="M2849.6,-2058.95C2841.05,-2117.64 2814.31,-2301.19 2804,-2372.03"/>
<polygon fill="black" stroke="black" points="2800.52,-2371.61 2802.54,-2382.01 2807.45,-2372.62 2800.52,-2371.61"/>
</g>
<!-- github.com/go&#45;playground/universal&#45;translator&#45;&gt;github.com/go&#45;playground/locales -->
<g id="edge50" class="edge">
<title>github.com/go&#45;playground/universal&#45;translator&#45;&gt;github.com/go&#45;playground/locales</title>
<path fill="none" stroke="black" d="M2756.14,-1850.24C2774.65,-1886.9 2816.61,-1970 2838.46,-2013.27"/>
<polygon fill="black" stroke="black" points="2835.42,-2015.02 2843.05,-2022.37 2841.67,-2011.87 2835.42,-2015.02"/>
</g>
<!-- github.com/go&#45;playground/validator/v10&#45;&gt;github.com/gabriel&#45;vasile/mimetype -->
<g id="edge51" class="edge">
<title>github.com/go&#45;playground/validator/v10&#45;&gt;github.com/gabriel&#45;vasile/mimetype</title>
<path fill="none" stroke="black" d="M2434.2,-2204.45C2428.38,-2168.34 2415.24,-2086.86 2408.27,-2043.58"/>
<polygon fill="black" stroke="black" points="2411.68,-2042.77 2406.63,-2033.45 2404.77,-2043.88 2411.68,-2042.77"/>
</g>
<!-- github.com/go&#45;playground/validator/v10&#45;&gt;golang.org/x/net -->
<g id="edge57" class="edge">
<title>github.com/go&#45;playground/validator/v10&#45;&gt;golang.org/x/net</title>
<path fill="none" stroke="black" d="M2423.95,-2240.66C2401.28,-2271.99 2354.79,-2336.25 2328.63,-2372.41"/>
<polygon fill="black" stroke="black" points="2325.78,-2370.38 2322.75,-2380.53 2331.45,-2374.48 2325.78,-2370.38"/>
</g>
<!-- github.com/go&#45;playground/validator/v10&#45;&gt;github.com/go&#45;playground/locales -->
<g id="edge53" class="edge">
<title>github.com/go&#45;playground/validator/v10&#45;&gt;github.com/go&#45;playground/locales</title>
<path fill="none" stroke="black" d="M2478.43,-2204.37C2555.06,-2170.81 2718.91,-2099.03 2801.89,-2062.69"/>
<polygon fill="black" stroke="black" points="2803.35,-2065.86 2811.11,-2058.65 2800.54,-2059.45 2803.35,-2065.86"/>
</g>
<!-- github.com/go&#45;playground/validator/v10&#45;&gt;github.com/go&#45;playground/universal&#45;translator -->
<g id="edge54" class="edge">
<title>github.com/go&#45;playground/validator/v10&#45;&gt;github.com/go&#45;playground/universal&#45;translator</title>
<path fill="none" stroke="black" d="M2451.43,-2204.43C2501.29,-2141.62 2667.37,-1932.39 2726.15,-1858.34"/>
<polygon fill="black" stroke="black" points="2728.98,-1860.41 2732.45,-1850.4 2723.5,-1856.06 2728.98,-1860.41"/>
</g>
<!-- github.com/go&#45;playground/validator/v10&#45;&gt;github.com/leodido/go&#45;urn -->
<g id="edge55" class="edge">
<title>github.com/go&#45;playground/validator/v10&#45;&gt;github.com/leodido/go&#45;urn</title>
<path fill="none" stroke="black" d="M2415.06,-2204.35C2338.56,-2141.46 2084.43,-1932.55 1996.89,-1860.59"/>
<polygon fill="black" stroke="black" points="1998.9,-1857.71 1988.95,-1854.06 1994.45,-1863.12 1998.9,-1857.71"/>
</g>
<!-- github.com/go&#45;playground/validator/v10&#45;&gt;golang.org/x/crypto -->
<g id="edge56" class="edge">
<title>github.com/go&#45;playground/validator/v10&#45;&gt;golang.org/x/crypto</title>
<path fill="none" stroke="black" d="M2448.62,-2240.8C2469.15,-2273.46 2512.14,-2341.88 2535.98,-2379.81"/>
<polygon fill="black" stroke="black" points="2533.03,-2381.7 2541.32,-2388.31 2538.96,-2377.98 2533.03,-2381.7"/>
</g>
<!-- github.com/go&#45;playground/validator/v10&#45;&gt;golang.org/x/sys -->
<g id="edge58" class="edge">
<title>github.com/go&#45;playground/validator/v10&#45;&gt;golang.org/x/sys</title>
<path fill="none" stroke="black" d="M2185.59,-2217.09C2185.43,-2217.08 2185.26,-2217.08 2185.1,-2217.08"/>
<polygon fill="black" stroke="black" points="2187.8,-2213.63 2177.72,-2216.92 2187.65,-2220.63 2187.8,-2213.63"/>
</g>
<!-- github.com/go&#45;playground/validator/v10&#45;&gt;golang.org/x/text -->
<g id="edge59" class="edge">
<title>github.com/go&#45;playground/validator/v10&#45;&gt;golang.org/x/text</title>
<path fill="none" stroke="black" d="M2473.89,-2240.5C2540.43,-2273.12 2680.65,-2341.86 2753.59,-2377.62"/>
<polygon fill="black" stroke="black" points="2752.48,-2380.97 2763,-2382.23 2755.56,-2374.68 2752.48,-2380.97"/>
</g>
<!-- github.com/go&#45;playground/assert/v2 -->
<g id="node36" class="node">
<title>github.com/go&#45;playground/assert/v2</title>
<text text-anchor="middle" x="2294.35" y="-2987.45" font-family="Helvetica,sans-Serif" font-size="24.00">github.com/go&#45;playground/assert/v2</text>
</g>
<!-- github.com/go&#45;playground/validator/v10&#45;&gt;github.com/go&#45;playground/assert/v2 -->
<g id="edge52" class="edge">
<title>github.com/go&#45;playground/validator/v10&#45;&gt;github.com/go&#45;playground/assert/v2</title>
<path fill="none" stroke="black" d="M2433.72,-2240.77C2414.83,-2342.84 2322.51,-2841.54 2299.54,-2965.65"/>
<polygon fill="black" stroke="black" points="2296.09,-2965.05 2297.71,-2975.52 2302.97,-2966.33 2296.09,-2965.05"/>
</g>
<!-- github.com/json&#45;iterator/go&#45;&gt;github.com/davecgh/go&#45;spew -->
<g id="edge60" class="edge">
<title>github.com/json&#45;iterator/go&#45;&gt;github.com/davecgh/go&#45;spew</title>
<path fill="none" stroke="black" d="M1767.27,-927.86C1707,-998.91 1487.45,-1257.69 1416.84,-1340.93"/>
<polygon fill="black" stroke="black" points="1414.09,-1338.76 1410.29,-1348.65 1419.43,-1343.28 1414.09,-1338.76"/>
</g>
<!-- github.com/json&#45;iterator/go&#45;&gt;github.com/stretchr/testify -->
<g id="edge64" class="edge">
<title>github.com/json&#45;iterator/go&#45;&gt;github.com/stretchr/testify</title>
<path fill="none" stroke="black" d="M1775.72,-927.82C1750.73,-992.72 1665.76,-1213.41 1635.47,-1292.07"/>
<polygon fill="black" stroke="black" points="1632.05,-1291.19 1631.73,-1301.78 1638.59,-1293.71 1632.05,-1291.19"/>
</g>
<!-- github.com/json&#45;iterator/go&#45;&gt;github.com/modern&#45;go/concurrent -->
<g id="edge62" class="edge">
<title>github.com/json&#45;iterator/go&#45;&gt;github.com/modern&#45;go/concurrent</title>
<path fill="none" stroke="black" d="M1956.8,-895.72C1956.96,-895.71 1957.12,-895.7 1957.29,-895.68"/>
<polygon fill="black" stroke="black" points="1954.95,-899.38 1964.64,-895.09 1954.39,-892.4 1954.95,-899.38"/>
</g>
<!-- github.com/json&#45;iterator/go&#45;&gt;github.com/modern&#45;go/reflect2 -->
<g id="edge63" class="edge">
<title>github.com/json&#45;iterator/go&#45;&gt;github.com/modern&#45;go/reflect2</title>
<path fill="none" stroke="black" d="M1915.58,-927.68C1996.61,-938.67 2100.15,-952.72 2182.94,-963.96"/>
<polygon fill="black" stroke="black" points="2182.56,-967.44 2192.94,-965.31 2183.5,-960.5 2182.56,-967.44"/>
</g>
<!-- github.com/google/gofuzz -->
<g id="node37" class="node">
<title>github.com/google/gofuzz</title>
<text text-anchor="middle" x="1505.45" y="-217.2" font-family="Helvetica,sans-Serif" font-size="24.00">github.com/google/gofuzz</text>
</g>
<!-- github.com/json&#45;iterator/go&#45;&gt;github.com/google/gofuzz -->
<g id="edge61" class="edge">
<title>github.com/json&#45;iterator/go&#45;&gt;github.com/google/gofuzz</title>
<path fill="none" stroke="black" d="M1775.45,-891.65C1737.54,-797.84 1562.64,-364.93 1516.59,-250.96"/>
<polygon fill="black" stroke="black" points="1519.77,-249.49 1512.78,-241.53 1513.28,-252.11 1519.77,-249.49"/>
</g>
<!-- github.com/leodido/go&#45;urn&#45;&gt;github.com/stretchr/testify -->
<g id="edge66" class="edge">
<title>github.com/leodido/go&#45;urn&#45;&gt;github.com/stretchr/testify</title>
<path fill="none" stroke="black" d="M1954.97,-1817.93C1903.78,-1740.8 1703.27,-1438.69 1642.31,-1346.84"/>
<polygon fill="black" stroke="black" points="1645.14,-1344.78 1636.69,-1338.38 1639.31,-1348.65 1645.14,-1344.78"/>
</g>
<!-- github.com/mattn/go&#45;isatty&#45;&gt;golang.org/x/sys -->
<g id="edge67" class="edge">
<title>github.com/mattn/go&#45;isatty&#45;&gt;golang.org/x/sys</title>
<path fill="none" stroke="black" d="M1901.3,-2253.85C1926.98,-2247.85 1955.76,-2241.14 1982.14,-2234.99"/>
<polygon fill="black" stroke="black" points="1983.19,-2238.34 1992.13,-2232.66 1981.6,-2231.52 1983.19,-2238.34"/>
</g>
<!-- github.com/pelletier/go&#45;toml/v2&#45;&gt;github.com/stretchr/testify -->
<g id="edge68" class="edge">
<title>github.com/pelletier/go&#45;toml/v2&#45;&gt;github.com/stretchr/testify</title>
<path fill="none" stroke="black" d="M2016.07,-1227.55C1932.34,-1247.37 1798.13,-1279.14 1710.67,-1299.84"/>
<polygon fill="black" stroke="black" points="1709.69,-1296.48 1700.77,-1302.18 1711.31,-1303.29 1709.69,-1296.48"/>
</g>
<!-- golang.org/x/crypto&#45;&gt;golang.org/x/net -->
<g id="edge76" class="edge">
<title>golang.org/x/crypto&#45;&gt;golang.org/x/net</title>
<path fill="none" stroke="black" d="M2425.75,-2395.66C2425.58,-2395.66 2425.42,-2395.65 2425.25,-2395.65"/>
<polygon fill="black" stroke="black" points="2427.93,-2392.22 2417.83,-2395.43 2427.73,-2399.22 2427.93,-2392.22"/>
</g>
<!-- golang.org/x/crypto&#45;&gt;golang.org/x/sys -->
<g id="edge77" class="edge">
<title>golang.org/x/crypto&#45;&gt;golang.org/x/sys</title>
<path fill="none" stroke="black" d="M2507.32,-2388.5C2418.17,-2353.08 2220.7,-2274.64 2124.44,-2236.41"/>
<polygon fill="black" stroke="black" points="2125.47,-2233.05 2114.89,-2232.61 2122.89,-2239.56 2125.47,-2233.05"/>
</g>
<!-- golang.org/x/crypto&#45;&gt;golang.org/x/text -->
<g id="edge79" class="edge">
<title>golang.org/x/crypto&#45;&gt;golang.org/x/text</title>
<path fill="none" stroke="black" d="M2679.95,-2403.34C2680.11,-2403.34 2680.28,-2403.33 2680.44,-2403.33"/>
<polygon fill="black" stroke="black" points="2677.84,-2406.89 2687.74,-2403.14 2677.66,-2399.9 2677.84,-2406.89"/>
</g>
<!-- golang.org/x/crypto&#45;&gt;golang.org/x/term -->
<g id="edge78" class="edge">
<title>golang.org/x/crypto&#45;&gt;golang.org/x/term</title>
<path fill="none" stroke="black" d="M2554.9,-2424.82C2563.66,-2500.67 2597.2,-2791.06 2607.84,-2883.2"/>
<polygon fill="black" stroke="black" points="2604.37,-2883.66 2609,-2893.19 2611.33,-2882.86 2604.37,-2883.66"/>
</g>
<!-- golang.org/x/text&#45;&gt;golang.org/x/sys -->
<g id="edge85" class="edge">
<title>golang.org/x/text&#45;&gt;golang.org/x/sys</title>
<path fill="none" stroke="black" d="M2728.85,-2382.25C2592.42,-2347.55 2294.48,-2271.8 2150.56,-2235.2"/>
<polygon fill="black" stroke="black" points="2151.02,-2231.71 2140.46,-2232.63 2149.29,-2238.49 2151.02,-2231.71"/>
</g>
<!-- golang.org/x/mod -->
<g id="node41" class="node">
<title>golang.org/x/mod</title>
<text text-anchor="middle" x="3425.35" y="-2747.78" font-family="Helvetica,sans-Serif" font-size="24.00">golang.org/x/mod</text>
</g>
<!-- golang.org/x/text&#45;&gt;golang.org/x/mod -->
<g id="edge84" class="edge">
<title>golang.org/x/text&#45;&gt;golang.org/x/mod</title>
<path fill="none" stroke="black" d="M2831.75,-2418.33C2936.1,-2477.33 3267.42,-2664.68 3384.16,-2730.69"/>
<polygon fill="black" stroke="black" points="3382.74,-2733.9 3393.17,-2735.78 3386.18,-2727.81 3382.74,-2733.9"/>
</g>
<!-- golang.org/x/tools -->
<g id="node42" class="node">
<title>golang.org/x/tools</title>
<text text-anchor="middle" x="3204.21" y="-3003.17" font-family="Helvetica,sans-Serif" font-size="24.00">golang.org/x/tools</text>
</g>
<!-- golang.org/x/text&#45;&gt;golang.org/x/tools -->
<g id="edge86" class="edge">
<title>golang.org/x/text&#45;&gt;golang.org/x/tools</title>
<path fill="none" stroke="black" d="M2811.98,-2418.53C2869.76,-2505.57 3117.6,-2878.91 3186.42,-2982.58"/>
<polygon fill="black" stroke="black" points="3183.71,-2984.82 3192.15,-2991.21 3189.54,-2980.95 3183.71,-2984.82"/>
</g>
<!-- github.com/golang/protobuf -->
<g id="node33" class="node">
<title>github.com/golang/protobuf</title>
<text text-anchor="middle" x="3825.96" y="-687.68" font-family="Helvetica,sans-Serif" font-size="24.00">github.com/golang/protobuf</text>
</g>
<!-- google.golang.org/protobuf&#45;&gt;github.com/golang/protobuf -->
<g id="edge87" class="edge">
<title>google.golang.org/protobuf&#45;&gt;github.com/golang/protobuf</title>
<path fill="none" stroke="black" d="M3334.11,-962.9C3435.64,-912.82 3695.35,-772.98 3790.42,-717.16"/>
<polygon fill="black" stroke="black" points="3792.28,-720.13 3799.1,-712.02 3788.71,-714.11 3792.28,-720.13"/>
</g>
<!-- github.com/google/go&#45;cmp -->
<g id="node34" class="node">
<title>github.com/google/go&#45;cmp</title>
<text text-anchor="middle" x="4025.98" y="-528.79" font-family="Helvetica,sans-Serif" font-size="24.00">github.com/google/go&#45;cmp</text>
</g>
<!-- google.golang.org/protobuf&#45;&gt;github.com/google/go&#45;cmp -->
<g id="edge88" class="edge">
<title>google.golang.org/protobuf&#45;&gt;github.com/google/go&#45;cmp</title>
<path fill="none" stroke="black" d="M3322.34,-962.9C3437.86,-892.65 3857.79,-637.27 3987.52,-558.38"/>
<polygon fill="black" stroke="black" points="3989.63,-561.19 3996.36,-553.01 3985.99,-555.21 3989.63,-561.19"/>
</g>
<!-- gopkg.in/check.v1 -->
<g id="node43" class="node">
<title>gopkg.in/check.v1</title>
<text text-anchor="middle" x="2058.71" y="-11.8" font-family="Helvetica,sans-Serif" font-size="24.00">gopkg.in/check.v1</text>
</g>
<!-- gopkg.in/yaml.v3&#45;&gt;gopkg.in/check.v1 -->
<g id="edge89" class="edge">
<title>gopkg.in/yaml.v3&#45;&gt;gopkg.in/check.v1</title>
<path fill="none" stroke="black" d="M1962.74,-716.91C1976.01,-620.24 2038.61,-164.41 2054.85,-46.1"/>
<polygon fill="black" stroke="black" points="2058.34,-46.42 2056.23,-36.03 2051.41,-45.46 2058.34,-46.42"/>
</g>
<!-- github.com/golang/protobuf&#45;&gt;google.golang.org/protobuf -->
<g id="edge47" class="edge">
<title>github.com/golang/protobuf&#45;&gt;google.golang.org/protobuf</title>
<path fill="none" stroke="black" d="M3784.53,-711.91C3683.01,-761.99 3423.29,-901.83 3328.22,-957.65"/>
<polygon fill="black" stroke="black" points="3326.37,-954.68 3319.55,-962.79 3329.93,-960.71 3326.37,-954.68"/>
</g>
<!-- github.com/golang/protobuf&#45;&gt;github.com/google/go&#45;cmp -->
<g id="edge46" class="edge">
<title>github.com/golang/protobuf&#45;&gt;github.com/google/go&#45;cmp</title>
<path fill="none" stroke="black" d="M3848.9,-675.65C3885,-646.98 3955.08,-591.31 3995.41,-559.27"/>
<polygon fill="black" stroke="black" points="3997.65,-561.97 4003.3,-553.01 3993.29,-556.49 3997.65,-561.97"/>
</g>
<!-- golang.org/x/xerrors -->
<g id="node35" class="node">
<title>golang.org/x/xerrors</title>
<text text-anchor="middle" x="4559.51" y="-215.91" font-family="Helvetica,sans-Serif" font-size="24.00">golang.org/x/xerrors</text>
</g>
<!-- github.com/google/go&#45;cmp&#45;&gt;golang.org/x/xerrors -->
<g id="edge48" class="edge">
<title>github.com/google/go&#45;cmp&#45;&gt;golang.org/x/xerrors</title>
<path fill="none" stroke="black" d="M4056.97,-516.82C4148.61,-463.08 4418.25,-304.95 4520.02,-245.27"/>
<polygon fill="black" stroke="black" points="4521.91,-248.21 4528.76,-240.14 4518.37,-242.18 4521.91,-248.21"/>
</g>
<!-- github.com/stretchr/objx&#45;&gt;github.com/davecgh/go&#45;spew -->
<g id="edge69" class="edge">
<title>github.com/stretchr/objx&#45;&gt;github.com/davecgh/go&#45;spew</title>
<path fill="none" stroke="black" d="M1022.59,-1131.75C1093.52,-1176.57 1277.99,-1293.11 1357.47,-1343.32"/>
<polygon fill="black" stroke="black" points="1355.86,-1346.44 1366.18,-1348.82 1359.6,-1340.52 1355.86,-1346.44"/>
</g>
<!-- github.com/stretchr/objx&#45;&gt;github.com/stretchr/testify -->
<g id="edge70" class="edge">
<title>github.com/stretchr/objx&#45;&gt;github.com/stretchr/testify</title>
<path fill="none" stroke="black" d="M1037.29,-1131.75C1142.09,-1170.03 1411.05,-1258.43 1545.57,-1299.18"/>
<polygon fill="black" stroke="black" points="1544.83,-1302.61 1555.41,-1302.15 1546.85,-1295.91 1544.83,-1302.61"/>
</g>
</g>
</svg>
